# xmcd
#
# Track frame offsets: 
#        150
#        18920
#        32227
#        45390
#        60855
#        71254
#        83071
#        98486
#        108167
#        122616
#        135351
#        148705
#        165279
#        183989
#        201318
#        219293
#        237350
#        259287
#        281114
#        297217
#        307750
#        327918
#        338629
#
# Disc length: 4760 seconds
#
# Revision: 0
# Processed by: cddbd v1.5.1PL0 Copyright (c) Steve Scherf et al.
# Submitted via: ExactAudioCopy v0.95a5
#
DISCID=34129617
DTITLE=Ryan Adams - Unreleased Demos: 1997-2000
DYEAR=2000
DGENRE=Alt. Rock
TTITLE0=In My Time of Need
TTITLE1=Bar Lights
TTITLE2=Gonna Win
TTITLE3=All I Wanted
TTITLE4=Runnin' Out of Time
TTITLE5=Sit and Listen to the Rain
TTITLE6=Night Lights
TTITLE7=Probably Gonna Happen
TTITLE8=West NY Serenade
TTITLE9=Lil' Girls
TTITLE10=In the World
TTITLE11=Medicine
TTITLE12=Dial Tone
TTITLE13=Don't Wanna Know Why
TTITLE14=Easy Hearts
TTITLE15=Sitting Around
TTITLE16=Driving Rain
TTITLE17=Ghost Without Memories
TTITLE18=Running Down a Road
TTITLE19=Talkin' in my Sleep
TTITLE20=What Do You Think About Me?
TTITLE21=A Memory Away
TTITLE22=Caroline
EXTD=
EXTT0=
EXTT1=
EXTT2=
EXTT3=
EXTT4=
EXTT5=
EXTT6=
EXTT7=
EXTT8=
EXTT9=
EXTT10=
EXTT11=
EXTT12=
EXTT13=
EXTT14=
EXTT15=
EXTT16=
EXTT17=
EXTT18=
EXTT19=
EXTT20=
EXTT21=
EXTT22=
PLAYORDER=
